HIERARCHY
ROOT Hips
{
	OFFSET 0.00000 0.00000 0.00000
	CHANNELS 6 Xposition Yposition Zposition Zrotation Yrotation Xrotation 
	JOINT LHipJoint
	{
		OFFSET 0 0 0
		CHANNELS 3 Zrotation Yrotation Xrotation
		JOINT LeftUpLeg
		{
			OFFSET 1.26600 -1.82114 0.91038
			CHANNELS 3 Zrotation Yrotation Xrotation
			JOINT LeftLeg
			{
				OFFSET 2.50076 -6.87080 0.00000
				CHANNELS 3 Zrotation Yrotation Xrotation
				JOINT LeftFoot
				{
					OFFSET 2.57364 -7.07102 0.00000
					CHANNELS 3 Zrotation Yrotation Xrotation
					JOINT LeftToeBase
					{
						OFFSET 0.13572 -0.37290 1.97004
						CHANNELS 3 Zrotation Yrotation Xrotation
						End Site
						{
							OFFSET 0.00000 -0.00000 1.01383
						}
					}
				}
			}
		}
	}
	JOINT RHipJoint
	{
		OFFSET 0 0 0
		CHANNELS 3 Zrotation Yrotation Xrotation
		JOINT RightUpLeg
		{
			OFFSET -1.20803 -1.82114 0.91038
			CHANNELS 3 Zrotation Yrotation Xrotation
			JOINT RightLeg
			{
				OFFSET -2.54916 -7.00377 0.00000
				CHANNELS 3 Zrotation Yrotation Xrotation
				JOINT RightFoot
				{
					OFFSET -2.56374 -7.04382 0.00000
					CHANNELS 3 Zrotation Yrotation Xrotation
					JOINT RightToeBase
					{
						OFFSET -0.23520 -0.64621 2.09921
						CHANNELS 3 Zrotation Yrotation Xrotation
						End Site
						{
							OFFSET -0.00000 -0.00000 1.10065
						}
					}
				}
			}
		}
	}
	JOINT LowerBack
	{
		OFFSET 0 0 0
		CHANNELS 3 Zrotation Yrotation Xrotation
		JOINT Spine
		{
			OFFSET 0.05492 2.10797 -0.12074
			CHANNELS 3 Zrotation Yrotation Xrotation
			JOINT Spine1
			{
				OFFSET 0.04577 2.11592 -0.04483
				CHANNELS 3 Zrotation Yrotation Xrotation
				JOINT Neck
				{
					OFFSET 0 0 0
					CHANNELS 3 Zrotation Yrotation Xrotation
					JOINT Neck1
					{
						OFFSET -0.10759 1.80167 0.15770
						CHANNELS 3 Zrotation Yrotation Xrotation
						JOINT Head
						{
							OFFSET 0.09237 1.77509 -0.40848
							CHANNELS 3 Zrotation Yrotation Xrotation
							End Site
							{
								OFFSET 0.03805 1.84093 -0.15754
							}
						}
					}
				}
				JOINT LeftShoulder
				{
					OFFSET 0 0 0
					CHANNELS 3 Zrotation Yrotation Xrotation
					JOINT LeftArm
					{
						OFFSET 3.42372 1.09575 -0.28209
						CHANNELS 3 Zrotation Yrotation Xrotation
						JOINT LeftForeArm
						{
							OFFSET 4.95681 -0.00000 0.00000
							CHANNELS 3 Zrotation Yrotation Xrotation
							JOINT LeftHand
							{
								OFFSET 3.40915 -0.00000 0.00000
								CHANNELS 3 Zrotation Yrotation Xrotation
								JOINT LeftFingerBase
								{
									OFFSET 0 0 0
									CHANNELS 3 Zrotation Yrotation Xrotation
									JOINT LeftHandIndex1
									{
										OFFSET 0.61640 -0.00000 0.00000
										CHANNELS 3 Zrotation Yrotation Xrotation
										End Site
										{
											OFFSET 0.49696 -0.00000 0.00000
										}
									}
								}
								JOINT LThumb
								{
									OFFSET 0 0 0
									CHANNELS 3 Zrotation Yrotation Xrotation
									End Site
									{
										OFFSET 0.50455 -0.00000 0.50455
									}
								}
							}
						}
					}
				}
				JOINT RightShoulder
				{
					OFFSET 0 0 0
					CHANNELS 3 Zrotation Yrotation Xrotation
					JOINT RightArm
					{
						OFFSET -3.24731 1.15872 -0.32221
						CHANNELS 3 Zrotation Yrotation Xrotation
						JOINT RightForeArm
						{
							OFFSET -5.35200 -0.00000 0.00000
							CHANNELS 3 Zrotation Yrotation Xrotation
							JOINT RightHand
							{
								OFFSET -3.43721 -0.00000 -0.00000
								CHANNELS 3 Zrotation Yrotation Xrotation
								JOINT RightFingerBase
								{
									OFFSET 0 0 0
									CHANNELS 3 Zrotation Yrotation Xrotation
									JOINT RightHandIndex1
									{
										OFFSET -0.72009 -0.00000 0.00000
										CHANNELS 3 Zrotation Yrotation Xrotation
										End Site
										{
											OFFSET -0.58056 -0.00000 0.00000
										}
									}
								}
								JOINT RThumb
								{
									OFFSET 0 0 0
									CHANNELS 3 Zrotation Yrotation Xrotation
									End Site
									{
										OFFSET -0.58942 -0.00000 0.58942
									}
								}
							}
						}
					}
				}
			}
		}
	}
}
MOTION
Frames: 8
Frame Time: .0083333
8.8323 17.6764 31.5285 0 0 0 0 0 0 -21 0 0 0 0 0 0 0 0 0 0 0 0 0 0 21 0 0 0 0 0 0 0 0 0 0 0 0 0 0 0 0 0 0 0 0 0 0 -16 0 0 21 0 0 11 0 0 0 -8 0 0 0 0 0 0 0 0 0 0 0 0 0 0 0 0 0 0 0 0 8 0 0 0 0 0 0 0 0 0 0 0 0 0 0 0 0 0
8.8323 17.6764 31.5285 -174.1080 -0.6532 -175.7110 0.0000 0.0000 0.0000 -13.4691 -2.3686 -9.1689 2.8515 10.4507 30.4488 1.1795 -9.4668 -19.5394 0.0029 0.3504 0.9629 0.0000 0.0000 0.0000 29.1421 0.5448 -9.2073 -2.9274 -10.5766 30.8647 -1.7426 -0.9110 -25.3083 -0.1371 -2.3867 6.5757 4.0131 -0.0553 1.7646 3.3799 -0.0552 -1.8883 1.2378 -0.1587 -2.9313 -9.1475 -3.0018 -18.0280 4.8321 -2.0366 24.6597 3.0633 -0.8943 11.1422 -0.0000 0.0000 0.0000 -90.9588 2.8494 26.1592 12.3766 -20.3670 -2.2316 -0.0000 -0.0000 5.1173 19.2096 19.6430 6.6804 -7.1250 0.0000 -0.0000 -9.1385 50.4624 -1.2392 -0.0000 0.0000 0.0000 86.8674 -2.4703 18.2275 -13.7811 22.4209 -2.7441 0.0000 -0.0000 -4.6796 -21.3630 13.3585 -5.1640 7.1250 -0.0000 -0.0000 4.1162 -15.6998 2.8563
8.8444 17.6707 31.5283 -174.1450 -0.5715 -175.8050 0.0000 0.0000 0.0000 -13.4439 -2.0110 -9.1693 2.8559 10.4580 30.4730 1.1672 -9.7268 -19.4708 0.0011 0.2121 0.5827 0.0000 0.0000 0.0000 29.1192 0.5500 -9.1953 -2.9597 -10.6295 31.0404 -1.7375 -0.8760 -25.2590 -0.1565 -2.5492 7.0262 3.6705 -0.1031 2.0297 3.5747 -0.1146 -1.9779 1.6364 -0.1862 -3.1729 -9.1001 -2.8698 -18.0306 4.4060 -1.6712 25.3019 2.9721 -0.7590 11.3551 0.0000 0.0000 0.0000 -91.2087 3.0444 25.7498 12.4786 -20.5185 -2.2673 -0.0000 -0.0000 5.3512 18.5976 19.7412 6.4843 -7.1250 0.0000 -0.0000 -9.7659 50.4635 -1.3260 0.0000 0.0000 0.0000 86.5725 -2.6234 18.5107 -13.8276 22.4876 -2.7618 0.0000 -0.0000 -4.8628 -21.1401 13.3905 -5.1171 7.1250 -0.0000 -0.0000 4.2708 -15.6884 2.9652
8.8525 17.6642 31.5275 -174.4990 -0.4767 -175.9200 0.0000 0.0000 0.0000 -13.8461 -2.0182 -9.0113 2.8607 10.4661 30.4996 1.1731 -9.5135 -19.4936 0.0000 0.0267 0.0733 0.0000 0.0000 0.0000 28.7109 0.3564 -9.1914 -2.9836 -10.6684 31.1695 -1.7327 -0.7978 -25.1955 -0.1516 -2.5087 6.9138 3.1695 -0.1634 2.1167 3.6078 -0.2009 -1.9297 1.9550 -0.2136 -3.1701 -9.3817 -2.7477 -18.2456 4.5011 -1.3386 26.0530 3.1311 -0.6071 11.6645 -0.0000 0.0000 0.0000 -91.3717 3.0525 25.4483 12.4683 -20.5032 -2.2636 -0.0000 -0.0000 5.7030 17.8897 19.2858 6.0854 -7.1250 0.0000 -0.0000 -10.2990 49.8870 -1.2525 -0.0000 0.0000 0.0000 86.3184 -2.6149 19.0844 -13.8571 22.5301 -2.7731 0.0000 -0.0000 -4.9902 -20.9578 13.6438 -5.1626 7.1250 -0.0000 -0.0000 4.4063 -15.4386 3.0836
8.8604 17.6625 31.5275 -174.6760 -0.4588 -176.0900 0.0000 0.0000 0.0000 -14.0414 -2.1278 -8.8080 2.8758 10.4913 30.5828 1.1865 -9.4184 -19.5900 0.0002 0.0841 0.2310 0.0000 0.0000 0.0000 28.5289 0.3216 -9.0521 -3.0021 -10.6985 31.2695 -1.7514 -0.6977 -25.2942 -0.1797 -2.7302 7.5285 3.1963 -0.1336 2.0161 3.3690 -0.1594 -1.6855 1.6866 -0.1828 -2.8619 -9.3583 -2.7537 -18.5647 4.7187 -1.3245 26.7382 3.2373 -0.5572 11.9944 0.0000 -0.0000 0.0000 -90.9742 2.6725 25.6515 12.3747 -20.3642 -2.2310 -0.0000 -0.0000 5.8245 17.0170 19.8549 5.9345 -7.1250 0.0000 -0.0000 -11.3354 50.3249 -1.5045 0.0000 -0.0000 0.0000 86.6484 -2.3192 18.9919 -13.8499 22.5198 -2.7704 0.0000 -0.0000 -4.8381 -20.8899 13.9096 -5.2421 7.1250 -0.0000 -0.0000 4.4639 -15.1645 3.1505
8.8683 17.6604 31.5277 -174.6880 -0.4915 -176.2500 0.0000 0.0000 0.0000 -14.0061 -2.1117 -8.7134 2.8984 10.5288 30.7067 1.1775 -9.8097 -19.5631 0.0154 0.8019 2.2039 0.0000 0.0000 0.0000 28.5470 0.2333 -8.9304 -3.0131 -10.7162 31.3286 -1.7507 -0.7993 -25.3260 -0.1846 -2.7675 7.6320 3.2722 -0.1274 2.0825 3.2703 -0.1434 -1.5693 1.5405 -0.1722 -2.7800 -9.0595 -2.7474 -18.7081 4.3774 -1.2123 27.4331 3.1005 -0.5022 12.2859 0.0000 0.0000 0.0000 -90.7708 2.4875 25.6706 12.3307 -20.2987 -2.2157 -0.0000 -0.0000 5.8911 15.8597 20.8060 5.7624 -7.1250 0.0000 -0.0000 -12.8082 51.0904 -1.9490 0.0000 0.0000 0.0000 86.8363 -2.1851 18.8447 -13.8416 22.5077 -2.7672 0.0000 -0.0000 -4.8531 -20.8611 13.9331 -5.2428 7.1250 -0.0000 -0.0000 4.4846 -15.1426 3.1673
8.8751 17.6531 31.5282 -174.5990 -0.5694 -176.3160 0.0000 0.0000 0.0000 -13.8496 -2.0770 -8.7449 2.9175 10.5603 30.8109 1.1697 -10.1303 -19.5422 0.0268 1.0577 2.9076 0.0000 0.0000 0.0000 28.6938 0.1801 -8.9051 -3.0263 -10.7376 31.3999 -1.7515 -0.9614 -25.3911 -0.1625 -2.5973 7.1596 3.3198 -0.1121 2.2154 3.3137 -0.1166 -1.5485 1.5584 -0.1609 -2.8336 -8.8029 -2.7704 -18.7711 3.8749 -1.0830 28.0368 2.9071 -0.4653 12.5292 0.0000 -0.0000 0.0000 -90.7776 2.4590 25.7081 12.3742 -20.3634 -2.2308 -0.0000 -0.0000 5.9355 15.8999 20.7556 5.7644 -7.1250 0.0000 -0.0000 -12.7496 51.0467 -1.9260 0.0000 -0.0000 0.0000 86.8005 -2.1275 18.9064 -13.7775 22.4157 -2.7427 0.0000 -0.0000 -4.8630 -20.8470 14.3491 -5.3913 7.1250 -0.0000 -0.0000 4.5121 -14.7045 3.2292
8.8853 17.6464 31.5279 -174.4850 -0.6186 -176.4100 0.0000 0.0000 0.0000 -13.6662 -1.9787 -8.7279 2.9315 10.5833 30.8872 1.1827 -10.0808 -19.6378 0.0022 0.3023 0.8306 0.0000 0.0000 0.0000 28.8990 0.3291 -8.7682 -3.0429 -10.7642 31.4887 -1.7654 -1.0267 -25.5149 -0.1936 -2.8336 7.8158 3.3559 -0.0700 2.4756 3.3647 -0.0452 -1.5759 1.5897 -0.1288 -3.0089 -8.6463 -2.8118 -18.8733 3.5953 -0.9949 28.7334 2.8131 -0.4247 12.8273 -0.0000 0.0000 0.0000 -90.7518 2.4574 25.7870 12.4357 -20.4548 -2.2522 -0.0000 -0.0000 5.8239 15.8766 20.9541 5.8077 -7.1250 0.0000 -0.0000 -12.8499 51.2406 -2.0034 -0.0000 0.0000 0.0000 86.8093 -2.1113 18.7822 -13.6814 22.2774 -2.7062 0.0000 -0.0000 -4.6493 -20.7155 14.6863 -5.4767 7.1250 -0.0000 -0.0000 4.6167 -14.3627 3.3382
